<svg xmlns="http://www.w3.org/2000/svg" width="38.18" height="38.18" viewBox="0 0 38.18 38.18">
  <g id="Path_272" data-name="Path 272" transform="translate(3 3)" fill="#0694aa">
    <path d="M 16.09000015258789 33.68000030517578 C 13.71637058258057 33.68000030517578 11.41277980804443 33.21464157104492 9.243229866027832 32.29684066772461 C 7.148550033569336 31.41070938110352 5.267560005187988 30.14250946044922 3.652520179748535 28.52748107910156 C 2.037490129470825 26.91243934631348 0.7692901492118835 25.03145027160645 -0.1168398484587669 22.93676948547363 C -1.034639835357666 20.76721954345703 -1.49999988079071 18.46363067626953 -1.49999988079071 16.09000015258789 C -1.49999988079071 13.71637058258057 -1.034639835357666 11.41277980804443 -0.1168398484587669 9.243229866027832 C 0.7692901492118835 7.148550033569336 2.037490129470825 5.267560005187988 3.652520179748535 3.652520179748535 C 5.267560005187988 2.037490129470825 7.148550033569336 0.7692901492118835 9.243229866027832 -0.1168398484587669 C 11.41277980804443 -1.034639835357666 13.71637058258057 -1.49999988079071 16.09000015258789 -1.49999988079071 C 18.46433067321777 -1.49999988079071 20.76834106445313 -1.034639835357666 22.93802070617676 -0.116849847137928 C 25.0328197479248 0.7692601680755615 26.91378974914551 2.037480115890503 28.52869033813477 3.652590036392212 C 30.14347076416016 5.267580032348633 31.41142082214355 7.148590087890625 32.29732894897461 9.243380546569824 C 33.21480178833008 11.41279029846191 33.68000030517578 13.71633052825928 33.68000030517578 16.09000015258789 C 33.68000030517578 18.46363067626953 33.21464157104492 20.76721954345703 32.29684066772461 22.93676948547363 C 31.41070938110352 25.03145027160645 30.14250946044922 26.91243934631348 28.52748107910156 28.52748107910156 C 26.91243934631348 30.14250946044922 25.03145027160645 31.41070938110352 22.93676948547363 32.29684066772461 C 20.76721954345703 33.21464157104492 18.46363067626953 33.68000030517578 16.09000015258789 33.68000030517578 Z M 16.08974075317383 16.98510932922363 L 17.15065956115723 18.04603004455566 L 22.79117965698242 23.68655014038086 L 23.43184089660645 24.32719993591309 C 23.57241058349609 24.46830940246582 23.73446083068848 24.48907089233398 23.8187198638916 24.48907089233398 C 23.90361976623535 24.48907089233398 24.06706047058105 24.46804046630859 24.2078800201416 24.32722091674805 L 24.32720947265625 24.20788955688477 C 24.46812057495117 24.06752014160156 24.48899078369141 23.90570068359375 24.48907089233398 23.8215503692627 C 24.48915100097656 23.73653984069824 24.46822929382324 23.5728702545166 24.32722091674805 23.43185997009277 L 18.04603004455566 17.15065956115723 L 16.98484992980957 16.08947944641113 L 18.04655075073242 15.0288200378418 L 24.33078956604004 8.750690460205078 C 24.4711799621582 8.61083984375 24.49205017089844 8.449020385742188 24.49213027954102 8.364870071411133 C 24.49221038818359 8.279860496520996 24.47129058837891 8.116189956665039 24.33028030395508 7.975180149078369 L 24.21095085144043 7.855850219726563 C 24.07039070129395 7.714750289916992 23.90834045410156 7.693990230560303 23.8240795135498 7.693990230560303 C 23.73917961120605 7.693990230560303 23.57574081420898 7.715020179748535 23.4349193572998 7.85584020614624 L 17.15372085571289 14.13704013824463 L 16.09305953979492 15.19770050048828 L 15.03240013122559 14.13704013824463 L 8.75121021270752 7.855850219726563 C 8.610650062561035 7.714750289916992 8.448599815368652 7.693990230560303 8.364339828491211 7.693990230560303 C 8.279439926147461 7.693990230560303 8.116000175476074 7.715020179748535 7.975180149078369 7.85584020614624 L 7.855850219726563 7.975170135498047 C 7.714940071105957 8.115540504455566 7.694070339202881 8.277359962463379 7.693990230560303 8.361510276794434 C 7.693910121917725 8.44651985168457 7.714829921722412 8.610190391540527 7.85584020614624 8.751199722290039 L 14.13677978515625 15.02908039093018 L 15.19795989990234 16.08974075317383 L 14.13704013824463 17.15065956115723 L 7.855850219726563 23.43185043334961 C 7.714940071105957 23.57221984863281 7.694070339202881 23.73403930664063 7.693990230560303 23.81818962097168 C 7.693910121917725 23.90320014953613 7.714829921722412 24.06686973571777 7.85584020614624 24.2078800201416 L 7.975170135498047 24.32720947265625 C 8.115730285644531 24.46830940246582 8.277780532836914 24.48907089233398 8.362040519714355 24.48907089233398 C 8.446940422058105 24.48907089233398 8.610380172729492 24.46804046630859 8.751199722290039 24.32722091674805 L 15.02908039093018 18.04628944396973 L 16.08974075317383 16.98510932922363 Z" stroke="none"/>
    <path d="M 16.09000015258789 0 C 7.205160140991211 0 0 7.205160140991211 0 16.09000015258789 C 0 24.97484016418457 7.205160140991211 32.18000030517578 16.09000015258789 32.18000030517578 C 24.97484016418457 32.18000030517578 32.18000030517578 24.97484016418457 32.18000030517578 16.09000015258789 C 32.18000030517578 7.205160140991211 24.9778995513916 0 16.09000015258789 0 M 16.09305953979492 13.07637977600098 L 22.3742504119873 6.795190811157227 C 22.77504539489746 6.394390106201172 23.29975128173828 6.193990707397461 23.82407760620117 6.193990707397461 C 24.34840202331543 6.193990707397461 24.87234497070313 6.394390106201172 25.27161026000977 6.795190811157227 L 25.39093017578125 6.914510726928711 C 26.19252967834473 7.716100692749023 26.19252967834473 9.013339996337891 25.39093017578125 9.811870574951172 L 19.106689453125 16.09000015258789 L 25.38787078857422 22.37118911743164 C 26.1894702911377 23.17277908325195 26.1894702911377 24.47002029418945 25.38787078857422 25.26855087280273 L 25.26855087280273 25.38787078857422 C 24.86775588989258 25.78866958618164 24.34304809570313 25.98907089233398 23.81872177124023 25.98907089233398 C 23.29439735412598 25.98907089233398 22.77045440673828 25.78866958618164 22.37118911743164 25.38787078857422 L 21.73052024841309 24.7472095489502 L 16.09000015258789 19.106689453125 L 9.811870574951172 25.38787078857422 C 9.411075592041016 25.78866958618164 8.886367797851563 25.98907089233398 8.362043380737305 25.98907089233398 C 7.837717056274414 25.98907089233398 7.313776016235352 25.78866958618164 6.914510726928711 25.38787078857422 L 6.795190811157227 25.26855087280273 C 5.993589401245117 24.46696090698242 5.993589401245117 23.16971969604492 6.795190811157227 22.37118911743164 L 13.07637977600098 16.09000015258789 L 6.795190811157227 9.811870574951172 C 5.993589401245117 9.010280609130859 5.993589401245117 7.713039398193359 6.795190811157227 6.914510726928711 L 6.914510726928711 6.795190811157227 C 7.315305709838867 6.394390106201172 7.84001350402832 6.193990707397461 8.364337921142578 6.193990707397461 C 8.888662338256836 6.193990707397461 9.412605285644531 6.394390106201172 9.811870574951172 6.795190811157227 L 16.09305953979492 13.07637977600098 M 16.09000015258789 -3 C 18.66617965698242 -3 21.16680145263672 -2.494770050048828 23.52239990234375 -1.498340606689453 C 25.79599952697754 -0.536590576171875 27.83724975585938 0.839599609375 29.58942031860352 2.592000961303711 C 31.34144973754883 4.344259262084961 32.71733856201172 6.385530471801758 33.67885971069336 8.659111022949219 C 34.67494201660156 11.01440048217773 35.18000030517578 13.5145092010498 35.18000030517578 16.09000015258789 C 35.18000030517578 18.66550064086914 34.67475891113281 21.16571044921875 33.67831039428711 23.52117919921875 C 32.71656036376953 25.79463005065918 31.34041976928711 27.83584976196289 29.5881404876709 29.5881404876709 C 27.83584976196289 31.34041976928711 25.79463005065918 32.71656036376953 23.52117919921875 33.67831039428711 C 21.16571044921875 34.67475891113281 18.66550064086914 35.18000030517578 16.09000015258789 35.18000030517578 C 13.51449966430664 35.18000030517578 11.01428985595703 34.67475891113281 8.658821105957031 33.67831039428711 C 6.385370254516602 32.71656036376953 4.344150543212891 31.34041976928711 2.591859817504883 29.5881404876709 C 0.8395805358886719 27.83584976196289 -0.53656005859375 25.79463005065918 -1.498310089111328 23.52117919921875 C -2.494758605957031 21.16571044921875 -3 18.66550064086914 -3 16.09000015258789 C -3 13.51449966430664 -2.494758605957031 11.01428985595703 -1.498310089111328 8.658821105957031 C -0.53656005859375 6.385370254516602 0.8395805358886719 4.344150543212891 2.591859817504883 2.591859817504883 C 4.344150543212891 0.8395805358886719 6.385370254516602 -0.53656005859375 8.658821105957031 -1.498310089111328 C 11.01428985595703 -2.494758605957031 13.51449966430664 -3 16.09000015258789 -3 Z" stroke="none" fill="#fff"/>
  </g>
</svg>
